<?xml version="1.0" standalone="no"?>
<!DOCTYPE svg PUBLIC "-//W3C//DTD SVG 20010904//EN"
 "http://www.w3.org/TR/2001/REC-SVG-20010904/DTD/svg10.dtd">
<svg version="1.0" xmlns="http://www.w3.org/2000/svg"
 width="534.000000pt" height="280.000000pt" viewBox="0 0 534.000000 280.000000"
 preserveAspectRatio="xMidYMid meet">

<g transform="translate(0.000000,280.000000) scale(0.100000,-0.100000)"
fill="#000000" stroke="none">
<path d="M68 2533 c-1 -126 -2 -252 -2 -281 l-1 -54 29 6 c16 3 55 6 87 6 l59
0 0 205 0 205 1305 0 1305 0 0 -370 0 -370 25 0 25 0 0 134 0 134 244 4 c134
1 248 6 251 10 4 4 5 14 2 23 -6 13 -39 15 -247 15 l-240 0 0 98 c0 53 -3 148
-7 210 l-6 112 556 0 557 0 0 -220 0 -220 25 0 25 0 0 220 0 220 510 0 510 0
0 -205 0 -205 90 0 90 0 0 275 0 275 -2595 0 -2595 0 -2 -227z"/>
<path d="M70 860 l0 -780 965 0 966 0 -3 63 -3 62 -52 3 -53 3 0 505 0 504
-130 0 c-123 0 -130 -1 -130 -20 0 -18 8 -20 103 -22 l102 -3 0 -480 0 -480
-795 0 -795 0 0 480 0 480 392 3 c385 2 391 3 386 22 -5 20 -14 20 -389 20
l-384 0 0 158 c0 86 -3 181 -6 210 l-7 52 -83 0 -84 0 0 -780z"/>
<path d="M5080 1483 c0 -87 -3 -188 -7 -225 l-6 -68 -681 -2 c-639 -3 -681 -4
-684 -20 -3 -17 9 -18 142 -18 l146 0 0 -235 0 -235 30 0 30 0 0 235 0 235
515 0 515 0 0 -472 0 -471 -1082 7 c-595 3 -1083 8 -1084 9 -1 1 -3 209 -5
462 l-4 460 98 3 c87 2 98 5 95 20 -3 14 -18 18 -90 22 -47 3 -90 9 -94 13 -5
4 -10 53 -12 107 -4 98 -5 100 -28 100 l-24 0 0 -600 0 -600 -55 0 -55 0 0
-65 0 -65 1260 0 1260 0 0 780 0 780 -90 0 -90 0 0 -157z"/>
</g>
</svg>
